<svg width="37" height="37" viewBox="0 0 37 37" fill="none" xmlns="http://www.w3.org/2000/svg">
<path d="M18.2481 21.2441C23.838 21.2441 28.3731 16.709 28.3731 11.1191C28.3731 5.5293 23.838 0.994141 18.2481 0.994141C12.6583 0.994141 8.12311 5.5293 8.12311 11.1191C8.12311 16.709 12.6583 21.2441 18.2481 21.2441ZM27.2481 23.4941H23.3739C21.813 24.2113 20.0762 24.6191 18.2481 24.6191C16.42 24.6191 14.6903 24.2113 13.1223 23.4941H9.24811C4.27701 23.4941 0.248108 27.523 0.248108 32.4941V33.6191C0.248108 35.4824 1.75983 36.9941 3.62311 36.9941H32.8731C34.7364 36.9941 36.2481 35.4824 36.2481 33.6191V32.4941C36.2481 27.523 32.2192 23.4941 27.2481 23.4941Z" fill="black"/>
</svg>
